<svg version="1.1" xmlns="http://www.w3.org/2000/svg" viewBox="0 0 1412.2542114257812 1295.333251953125" width="1412.2542114257812" height="1295.333251953125">
  <!-- svg-source:excalidraw -->
  
  <defs>
    <style class="style-fonts">
      @font-face {
        font-family: "Virgil";
        src: url("https://excalidraw.com/Virgil.woff2");
      }
      @font-face {
        font-family: "Cascadia";
        src: url("https://excalidraw.com/Cascadia.woff2");
      }
      @font-face {
        font-family: "Assistant";
        src: url("https://excalidraw.com/Assistant-Regular.woff2");
      }
    </style>
    
  </defs>
  <rect x="0" y="0" width="1412.2542114257812" height="1295.333251953125" fill="#ffffff"></rect><g transform="translate(332.000244140625 149.99990844726562) rotate(0 47.24609375 11.5)"><text x="0" y="18.400390625" font-family="Helvetica, Segoe UI Emoji" font-size="20px" fill="#2f9e44" text-anchor="start" style="white-space: pre;" direction="ltr" dominant-baseline="alphabetic">visit /Login</text></g><g transform="translate(282.00018310546875 237.33316040039062) rotate(0 100.6005859375 11.5)"><text x="0" y="18.400390625" font-family="Helvetica, Segoe UI Emoji" font-size="20px" fill="#2f9e44" text-anchor="start" style="white-space: pre;" direction="ltr" dominant-baseline="alphabetic">type email &amp; password</text></g><g transform="translate(298.6668701171875 316.66656494140625) rotate(0 77.2705078125 11.5)"><text x="0" y="18.400390625" font-family="Helvetica, Segoe UI Emoji" font-size="20px" fill="#2f9e44" text-anchor="start" style="white-space: pre;" direction="ltr" dominant-baseline="alphabetic">click Login button</text></g><g transform="translate(250.6668701171875 395.99993896484375) rotate(0 136.162109375 34.5)"><text x="0" y="18.400390625" font-family="Helvetica, Segoe UI Emoji" font-size="20px" fill="#2f9e44" text-anchor="start" style="white-space: pre;" direction="ltr" dominant-baseline="alphabetic">email &amp; password sent to </text><text x="0" y="41.400390625" font-family="Helvetica, Segoe UI Emoji" font-size="20px" fill="#2f9e44" text-anchor="start" style="white-space: pre;" direction="ltr" dominant-baseline="alphabetic">loginService(email, password) </text><text x="0" y="64.400390625" font-family="Helvetica, Segoe UI Emoji" font-size="20px" fill="#2f9e44" text-anchor="start" style="white-space: pre;" direction="ltr" dominant-baseline="alphabetic">in AuthStore.js</text></g><g transform="translate(846.0001831054688 680.333251953125) rotate(0 138.9599609375 46)"><text x="0" y="18.400390625" font-family="Helvetica, Segoe UI Emoji" font-size="20px" fill="#1971c2" text-anchor="start" style="white-space: pre;" direction="ltr" dominant-baseline="alphabetic">post: ${DOMAIN}/api/user/login</text><text x="0" y="41.400390625" font-family="Helvetica, Segoe UI Emoji" font-size="20px" fill="#1971c2" text-anchor="start" style="white-space: pre;" direction="ltr" dominant-baseline="alphabetic">email &amp; password sent to</text><text x="0" y="64.400390625" font-family="Helvetica, Segoe UI Emoji" font-size="20px" fill="#1971c2" text-anchor="start" style="white-space: pre;" direction="ltr" dominant-baseline="alphabetic">verifyUser(email, password)</text><text x="0" y="87.400390625" font-family="Helvetica, Segoe UI Emoji" font-size="20px" fill="#1971c2" text-anchor="start" style="white-space: pre;" direction="ltr" dominant-baseline="alphabetic">in fakedb.ts</text></g><g transform="translate(649.3334350585938 837.6666259765625) rotate(0 148.9501953125 11.5)"><text x="0" y="18.400390625" font-family="Helvetica, Segoe UI Emoji" font-size="20px" fill="#1971c2" text-anchor="start" style="white-space: pre;" direction="ltr" dominant-baseline="alphabetic">verifyUser return matched &lt;user&gt;</text></g><g transform="translate(645.3333740234375 911.3331909179688) rotate(0 133.4130859375 11.5)"><text x="0" y="18.400390625" font-family="Helvetica, Segoe UI Emoji" font-size="20px" fill="#1971c2" text-anchor="start" style="white-space: pre;" direction="ltr" dominant-baseline="alphabetic">create &lt;token&gt; for this &lt;user&gt;</text></g><g transform="translate(628.6666870117188 995) rotate(0 163.447265625 46)"><text x="0" y="18.400390625" font-family="Helvetica, Segoe UI Emoji" font-size="20px" fill="#1971c2" text-anchor="start" style="white-space: pre;" direction="ltr" dominant-baseline="alphabetic">send back the verified matched </text><text x="0" y="41.400390625" font-family="Helvetica, Segoe UI Emoji" font-size="20px" fill="#1971c2" text-anchor="start" style="white-space: pre;" direction="ltr" dominant-baseline="alphabetic">&lt;user&gt; and created &lt;token&gt; back to </text><text x="0" y="64.400390625" font-family="Helvetica, Segoe UI Emoji" font-size="20px" fill="#1971c2" text-anchor="start" style="white-space: pre;" direction="ltr" dominant-baseline="alphabetic">loginService(email, password) in</text><text x="0" y="87.400390625" font-family="Helvetica, Segoe UI Emoji" font-size="20px" fill="#1971c2" text-anchor="start" style="white-space: pre;" direction="ltr" dominant-baseline="alphabetic">AuthStore.js</text></g><g transform="translate(252.66690063476562 1011.6665344238281) rotate(0 130.0830078125 23)"><text x="0" y="18.400390625" font-family="Helvetica, Segoe UI Emoji" font-size="20px" fill="#2f9e44" text-anchor="start" style="white-space: pre;" direction="ltr" dominant-baseline="alphabetic">in AuthStore.js: </text><text x="0" y="41.400390625" font-family="Helvetica, Segoe UI Emoji" font-size="20px" fill="#2f9e44" text-anchor="start" style="white-space: pre;" direction="ltr" dominant-baseline="alphabetic">create session using &lt;token&gt;</text></g><g transform="translate(266.00018310546875 518.9999694824219) rotate(0 102.2998046875 11.5)"><text x="0" y="18.400390625" font-family="Helvetica, Segoe UI Emoji" font-size="20px" fill="#2f9e44" text-anchor="start" style="white-space: pre;" direction="ltr" dominant-baseline="alphabetic">set authLoading to true</text></g><g transform="translate(236.66680908203125 592.3331604003906) rotate(0 148.3203125 11.5)"><text x="0" y="18.400390625" font-family="Helvetica, Segoe UI Emoji" font-size="20px" fill="#2f9e44" text-anchor="start" style="white-space: pre;" direction="ltr" dominant-baseline="alphabetic">LoginPage now display "Loading"</text></g><g transform="translate(79.33334350585938 1190.9999389648438) rotate(0 106.19140625 11.5)"><text x="0" y="18.400390625" font-family="Helvetica, Segoe UI Emoji" font-size="20px" fill="#2f9e44" text-anchor="start" style="white-space: pre;" direction="ltr" dominant-baseline="alphabetic">set authLoading to false</text></g><g transform="translate(294.66680908203125 1108.3333435058594) rotate(0 80.6005859375 11.5)"><text x="0" y="18.400390625" font-family="Helvetica, Segoe UI Emoji" font-size="20px" fill="#2f9e44" text-anchor="start" style="white-space: pre;" direction="ltr" dominant-baseline="alphabetic">set user to &lt;user&gt;</text></g><g transform="translate(10 1262.333251953125) rotate(0 171.6748046875 11.5)"><text x="0" y="18.400390625" font-family="Helvetica, Segoe UI Emoji" font-size="20px" fill="#2f9e44" text-anchor="start" style="white-space: pre;" direction="ltr" dominant-baseline="alphabetic">LoginPage no longer display "Loading"</text></g><g transform="translate(382.66680908203125 1191.6666564941406) rotate(0 211.611328125 11.5)"><text x="0" y="18.400390625" font-family="Helvetica, Segoe UI Emoji" font-size="20px" fill="#2f9e44" text-anchor="start" style="white-space: pre;" direction="ltr" dominant-baseline="alphabetic">useEffect() in Login.page.jsx detects the &lt;user&gt;</text></g><g transform="translate(507.33349609375 1252.9999694824219) rotate(0 120.087890625 11.5)"><text x="0" y="18.400390625" font-family="Helvetica, Segoe UI Emoji" font-size="20px" fill="#2f9e44" text-anchor="start" style="white-space: pre;" direction="ltr" dominant-baseline="alphabetic">navigate the page to /posts</text></g><g stroke-linecap="round"><g transform="translate(384.30481724132505 183.33334350585938) rotate(0 0.22043915832864514 21.666656494140625)"><path d="M0.44 0.49 C0.63 7.8, 0.7 36.1, 0.79 43.3 M0 0.27 C0.18 7.71, 0.39 36.9, 0.53 43.98" stroke="#1e1e1e" stroke-width="2" fill="none"></path></g><g transform="translate(384.30481724132505 183.33334350585938) rotate(0 0.22043915832864514 21.666656494140625)"><path d="M-7.14 23.71 C-4.57 28.99, -3.76 33.93, 0.53 43.98 M-7.14 23.71 C-4.28 30.82, -2.1 38.05, 0.53 43.98" stroke="#1e1e1e" stroke-width="2" fill="none"></path></g><g transform="translate(384.30481724132505 183.33334350585938) rotate(0 0.22043915832864514 21.666656494140625)"><path d="M7.68 23.52 C6.83 28.9, 4.22 33.89, 0.53 43.98 M7.68 23.52 C5.21 30.72, 2.06 38.02, 0.53 43.98" stroke="#1e1e1e" stroke-width="2" fill="none"></path></g></g><mask></mask><g stroke-linecap="round"><g transform="translate(382.0543112977316 272.0000305175781) rotate(0 -0.1428171834340901 19.666656494140625)"><path d="M-0.05 -0.19 C-0.05 6.37, -0.12 33.02, -0.19 39.64 M-0.74 -0.76 C-0.78 5.61, -0.55 32.28, -0.58 38.84" stroke="#1e1e1e" stroke-width="2" fill="none"></path></g><g transform="translate(382.0543112977316 272.0000305175781) rotate(0 -0.1428171834340901 19.666656494140625)"><path d="M-7.36 20.38 C-5.86 25.39, -3.19 29.74, -0.58 38.84 M-7.36 20.38 C-5.25 26.99, -2.62 32.62, -0.58 38.84" stroke="#1e1e1e" stroke-width="2" fill="none"></path></g><g transform="translate(382.0543112977316 272.0000305175781) rotate(0 -0.1428171834340901 19.666656494140625)"><path d="M6.09 20.34 C4.07 25.35, 3.2 29.72, -0.58 38.84 M6.09 20.34 C3.65 26.89, 1.74 32.54, -0.58 38.84" stroke="#1e1e1e" stroke-width="2" fill="none"></path></g></g><mask></mask><g stroke-linecap="round"><g transform="translate(382.00018310546875 352.0000305175781) rotate(0 0.333343505859375 20.33331298828125)"><path d="M0.07 -0.52 C0.14 6.23, 0.54 33.77, 0.72 40.66 M-0.56 0.39 C-0.57 7.23, 0.04 34.78, 0.32 41.35" stroke="#1e1e1e" stroke-width="2" fill="none"></path></g><g transform="translate(382.00018310546875 352.0000305175781) rotate(0 0.333343505859375 20.33331298828125)"><path d="M-7.21 22.46 C-5.49 29.21, -1.9 36.74, 0.32 41.35 M-7.21 22.46 C-4.7 28.42, -1.94 34.9, 0.32 41.35" stroke="#1e1e1e" stroke-width="2" fill="none"></path></g><g transform="translate(382.00018310546875 352.0000305175781) rotate(0 0.333343505859375 20.33331298828125)"><path d="M6.7 22.04 C3.52 28.95, 2.22 36.63, 0.32 41.35 M6.7 22.04 C4.63 28.18, 2.82 34.8, 0.32 41.35" stroke="#1e1e1e" stroke-width="2" fill="none"></path></g></g><mask></mask><g stroke-linecap="round"><g transform="translate(384.6668701171875 480.0000305175781) rotate(0 0 17.666656494140625)"><path d="M0.43 0.28 C0.38 6.2, 0.05 29.34, 0.02 35.23 M-0.02 -0.05 C-0.16 5.97, -0.41 30.08, -0.41 35.88" stroke="#1e1e1e" stroke-width="2" fill="none"></path></g><g transform="translate(384.6668701171875 480.0000305175781) rotate(0 0 17.666656494140625)"><path d="M-6.35 19.24 C-3.84 25.12, -2.35 31.33, -0.41 35.88 M-6.35 19.24 C-3.82 25.07, -2.41 31.36, -0.41 35.88" stroke="#1e1e1e" stroke-width="2" fill="none"></path></g><g transform="translate(384.6668701171875 480.0000305175781) rotate(0 0 17.666656494140625)"><path d="M5.74 19.32 C3.98 25.21, 1.2 31.4, -0.41 35.88 M5.74 19.32 C3.93 25.14, 0.99 31.41, -0.41 35.88" stroke="#1e1e1e" stroke-width="2" fill="none"></path></g></g><mask></mask><g stroke-linecap="round"><g transform="translate(384.4573574750867 551.3333435058594) rotate(0 0.2971961892963577 18.66668701171875)"><path d="M-0.33 0.09 C-0.24 6.32, -0.14 31.62, 0.05 37.79 M0.5 -0.33 C0.8 5.98, 0.99 30.74, 1.01 37.06" stroke="#1e1e1e" stroke-width="2" fill="none"></path></g><g transform="translate(384.4573574750867 551.3333435058594) rotate(0 0.2971961892963577 18.66668701171875)"><path d="M-5.49 19.56 C-3.89 22.32, -1.92 27.31, 1.01 37.06 M-5.49 19.56 C-3.55 23.65, -2.03 28.34, 1.01 37.06" stroke="#1e1e1e" stroke-width="2" fill="none"></path></g><g transform="translate(384.4573574750867 551.3333435058594) rotate(0 0.2971961892963577 18.66668701171875)"><path d="M7.28 19.47 C6.2 22.22, 5.5 27.22, 1.01 37.06 M7.28 19.47 C5.92 23.56, 4.14 28.28, 1.01 37.06" stroke="#1e1e1e" stroke-width="2" fill="none"></path></g></g><mask></mask><g transform="translate(240.00018310546875 659.3332824707031) rotate(0 133.974609375 23)"><text x="0" y="18.400390625" font-family="Helvetica, Segoe UI Emoji" font-size="20px" fill="#2f9e44" text-anchor="start" style="white-space: pre;" direction="ltr" dominant-baseline="alphabetic">post &lt;email&gt; and &lt;password&gt;</text><text x="0" y="41.400390625" font-family="Helvetica, Segoe UI Emoji" font-size="20px" fill="#2f9e44" text-anchor="start" style="white-space: pre;" direction="ltr" dominant-baseline="alphabetic">to ${DOMAIN}/api/user/login</text></g><g stroke-linecap="round"><g transform="translate(385.33349609375 623.3333435058594) rotate(0 -0.33331298828125 16)"><path d="M-0.17 -0.54 C-0.3 4.71, -0.5 26.43, -0.6 31.9 M0.74 0.37 C0.53 5.67, -0.68 27.38, -0.99 32.54" stroke="#1e1e1e" stroke-width="2" fill="none"></path></g><g transform="translate(385.33349609375 623.3333435058594) rotate(0 -0.33331298828125 16)"><path d="M-5.59 17.21 C-4.82 22.34, -2.68 27.13, -0.99 32.54 M-5.59 17.21 C-4.11 22.92, -2.65 27.91, -0.99 32.54" stroke="#1e1e1e" stroke-width="2" fill="none"></path></g><g transform="translate(385.33349609375 623.3333435058594) rotate(0 -0.33331298828125 16)"><path d="M5.34 17.84 C2.53 22.75, 1.09 27.33, -0.99 32.54 M5.34 17.84 C3.03 23.31, 0.7 28.09, -0.99 32.54" stroke="#1e1e1e" stroke-width="2" fill="none"></path></g></g><mask></mask><g stroke-linecap="round"><g transform="translate(541.3334350585938 688.2758681602957) rotate(0 149.56489961661566 -0.5905638425279562)"><path d="M-1.17 0.22 C48.64 0.15, 248.64 -1.38, 298.63 -1.57 M0.42 -0.71 C50.04 -0.51, 247.85 -0.44, 297.42 -0.24" stroke="#1e1e1e" stroke-width="2" fill="none"></path></g><g transform="translate(541.3334350585938 688.2758681602957) rotate(0 149.56489961661566 -0.5905638425279562)"><path d="M273.91 8.27 C281.06 5.24, 286.74 3.07, 297.42 -0.24 M273.91 8.27 C281.91 5.08, 289.1 3.7, 297.42 -0.24" stroke="#1e1e1e" stroke-width="2" fill="none"></path></g><g transform="translate(541.3334350585938 688.2758681602957) rotate(0 149.56489961661566 -0.5905638425279562)"><path d="M273.95 -8.83 C280.92 -6.99, 286.59 -4.29, 297.42 -0.24 M273.95 -8.83 C282.02 -6.56, 289.2 -2.48, 297.42 -0.24" stroke="#1e1e1e" stroke-width="2" fill="none"></path></g></g><mask></mask><g stroke-linecap="round"><g transform="translate(981.2049587161762 789.3334350585938) rotate(0 -80.08662535095493 21.6666259765625)"><path d="M0.85 0.51 C-25.7 7.88, -133.21 37.13, -160.09 44.4 M-0.17 -0.27 C-26.79 6.78, -134.14 35.76, -161 42.83" stroke="#1e1e1e" stroke-width="2" fill="none"></path></g><g transform="translate(981.2049587161762 789.3334350585938) rotate(0 -80.08662535095493 21.6666259765625)"><path d="M-140.51 28.51 C-144.36 32.09, -148.16 34.83, -161 42.83 M-140.51 28.51 C-148.83 33.28, -154.32 38.58, -161 42.83" stroke="#1e1e1e" stroke-width="2" fill="none"></path></g><g transform="translate(981.2049587161762 789.3334350585938) rotate(0 -80.08662535095493 21.6666259765625)"><path d="M-136.09 45.03 C-140.98 44.84, -145.8 43.77, -161 42.83 M-136.09 45.03 C-146.12 43.78, -153.21 43.08, -161 42.83" stroke="#1e1e1e" stroke-width="2" fill="none"></path></g></g><mask></mask><g stroke-linecap="round"><g transform="translate(797.3863906556419 871.3333129882814) rotate(0 0.0680335932908065 15.666656494140625)"><path d="M0.25 -0.26 C0.18 5.03, -0.35 26.6, -0.31 31.88 M-0.29 0.79 C-0.19 5.93, 0.6 25.99, 0.7 31.2" stroke="#1e1e1e" stroke-width="2" fill="none"></path></g><g transform="translate(797.3863906556419 871.3333129882814) rotate(0 0.0680335932908065 15.666656494140625)"><path d="M-5.1 16.65 C-3.64 20.57, -0.66 26.3, 0.7 31.2 M-5.1 16.65 C-3.39 21.61, -1.12 26.1, 0.7 31.2" stroke="#1e1e1e" stroke-width="2" fill="none"></path></g><g transform="translate(797.3863906556419 871.3333129882814) rotate(0 0.0680335932908065 15.666656494140625)"><path d="M5.61 16.32 C3.71 20.37, 3.32 26.2, 0.7 31.2 M5.61 16.32 C3.96 21.38, 2.87 25.97, 0.7 31.2" stroke="#1e1e1e" stroke-width="2" fill="none"></path></g></g><mask></mask><g stroke-linecap="round"><g transform="translate(795.4664430061111 944) rotate(0 1.1720712036733403 18.000030517578125)"><path d="M-0.31 0.04 C0.11 6.03, 1.81 29.77, 2.2 35.73 M0.53 -0.42 C0.9 5.66, 1.53 30.18, 1.7 36.3" stroke="#1e1e1e" stroke-width="2" fill="none"></path></g><g transform="translate(795.4664430061111 944) rotate(0 1.1720712036733403 18.000030517578125)"><path d="M-4.93 19.52 C-3.35 23.23, -2.3 26.9, 1.7 36.3 M-4.93 19.52 C-3.57 23.58, -1.45 27.97, 1.7 36.3" stroke="#1e1e1e" stroke-width="2" fill="none"></path></g><g transform="translate(795.4664430061111 944) rotate(0 1.1720712036733403 18.000030517578125)"><path d="M7.4 19.18 C6.1 22.93, 4.27 26.69, 1.7 36.3 M7.4 19.18 C5.52 23.33, 4.38 27.8, 1.7 36.3" stroke="#1e1e1e" stroke-width="2" fill="none"></path></g></g><mask></mask><g stroke-linecap="round"><g transform="translate(613 1049.9781161563858) rotate(0 -33.180084228515625 0.5644211537095316)"><path d="M-0.26 0.9 C-11.25 1.13, -54.57 0.22, -65.55 0.37 M1.8 0.32 C-9.3 0.79, -54.64 1.6, -66.07 1.51" stroke="#1e1e1e" stroke-width="2" fill="none"></path></g><g transform="translate(613 1049.9781161563858) rotate(0 -33.180084228515625 0.5644211537095316)"><path d="M-42.64 -7.21 C-48.94 -3.04, -59.43 -1.12, -66.07 1.51 M-42.64 -7.21 C-50.28 -4.06, -60 -2.19, -66.07 1.51" stroke="#1e1e1e" stroke-width="2" fill="none"></path></g><g transform="translate(613 1049.9781161563858) rotate(0 -33.180084228515625 0.5644211537095316)"><path d="M-42.52 9.89 C-48.71 8.43, -59.24 4.71, -66.07 1.51 M-42.52 9.89 C-50.1 7.02, -59.86 2.86, -66.07 1.51" stroke="#1e1e1e" stroke-width="2" fill="none"></path></g></g><mask></mask><g stroke-linecap="round"><g transform="translate(379.4278839766039 1062.6665344238281) rotate(0 0.6320360120685109 17.333404541015568)"><path d="M-0.16 -0.15 C-0.02 5.63, 0.93 29.02, 1.15 34.91 M0.76 -0.7 C0.8 4.89, 0.66 28.23, 0.66 34.06" stroke="#1e1e1e" stroke-width="2" fill="none"></path></g><g transform="translate(379.4278839766039 1062.6665344238281) rotate(0 0.6320360120685109 17.333404541015568)"><path d="M-5.22 17.74 C-3.32 23.36, -0.63 29.15, 0.66 34.06 M-5.22 17.74 C-3.33 24.35, -0.38 30.66, 0.66 34.06" stroke="#1e1e1e" stroke-width="2" fill="none"></path></g><g transform="translate(379.4278839766039 1062.6665344238281) rotate(0 0.6320360120685109 17.333404541015568)"><path d="M6.65 17.78 C4.33 23.37, 2.82 29.14, 0.66 34.06 M6.65 17.78 C3.94 24.36, 2.3 30.65, 0.66 34.06" stroke="#1e1e1e" stroke-width="2" fill="none"></path></g></g><mask></mask><g stroke-linecap="round"><g transform="translate(384.6497850814576 1142.0616383615668) rotate(0 98.80770958884398 20.802509066286916)"><path d="M-0.95 -0.63 C32.16 6.56, 165.24 35.72, 198.19 42.76 M0.75 1.65 C33.8 8.58, 164.46 34.37, 197.54 41.24" stroke="#1e1e1e" stroke-width="2" fill="none"></path></g><g transform="translate(384.6497850814576 1142.0616383615668) rotate(0 98.80770958884398 20.802509066286916)"><path d="M172.82 44.97 C178.12 45.17, 187.44 41.85, 197.54 41.24 M172.82 44.97 C180.08 43.58, 188.16 41.97, 197.54 41.24" stroke="#1e1e1e" stroke-width="2" fill="none"></path></g><g transform="translate(384.6497850814576 1142.0616383615668) rotate(0 98.80770958884398 20.802509066286916)"><path d="M176.21 28.21 C180.58 32.68, 189.03 33.66, 197.54 41.24 M176.21 28.21 C182.36 31.8, 189.43 35.19, 197.54 41.24" stroke="#1e1e1e" stroke-width="2" fill="none"></path></g></g><mask></mask><g stroke-linecap="round"><g transform="translate(378.8304762714499 1143.3332824707031) rotate(0 -81.84849103779288 22.000015258789062)"><path d="M-0.65 0.52 C-27.94 7.49, -135.33 35.66, -162.64 43.05 M1.22 -0.26 C-26.25 7.34, -135.83 36.88, -163.03 44.08" stroke="#1e1e1e" stroke-width="2" fill="none"></path></g><g transform="translate(378.8304762714499 1143.3332824707031) rotate(0 -81.84849103779288 22.000015258789062)"><path d="M-142.55 29.75 C-149.64 37.06, -160.18 39.68, -163.03 44.08 M-142.55 29.75 C-151.02 35.35, -157.3 40.28, -163.03 44.08" stroke="#1e1e1e" stroke-width="2" fill="none"></path></g><g transform="translate(378.8304762714499 1143.3332824707031) rotate(0 -81.84849103779288 22.000015258789062)"><path d="M-138.13 46.27 C-147.13 47.03, -159.42 43.12, -163.03 44.08 M-138.13 46.27 C-148.13 45.72, -156.04 44.54, -163.03 44.08" stroke="#1e1e1e" stroke-width="2" fill="none"></path></g></g><mask></mask><g stroke-linecap="round"><g transform="translate(194.08654111176463 1222) rotate(0 -0.48798086975654087 15.666656494140625)"><path d="M0.33 -0.16 C0.19 5.15, -1.21 26.31, -1.34 31.49 M-0.17 -0.72 C-0.08 4.45, -0.23 25.27, -0.29 30.6" stroke="#1e1e1e" stroke-width="2" fill="none"></path></g><g transform="translate(194.08654111176463 1222) rotate(0 -0.48798086975654087 15.666656494140625)"><path d="M-5.52 15.83 C-4.72 18.34, -3.2 22.64, -0.29 30.6 M-5.52 15.83 C-4.28 19.1, -3.14 22.07, -0.29 30.6" stroke="#1e1e1e" stroke-width="2" fill="none"></path></g><g transform="translate(194.08654111176463 1222) rotate(0 -0.48798086975654087 15.666656494140625)"><path d="M5.2 15.92 C3.8 18.44, 3.12 22.72, -0.29 30.6 M5.2 15.92 C4.1 19.17, 2.88 22.12, -0.29 30.6" stroke="#1e1e1e" stroke-width="2" fill="none"></path></g></g><mask></mask><g stroke-linecap="round"><g transform="translate(650.6502650101093 1217.6666564941406) rotate(0 0.2826193885914563 15.16668701171875)"><path d="M-0.12 -0.31 C0.04 4.88, 0.51 25.7, 0.69 30.85 M0.82 0.72 C0.93 5.8, 0.32 25.33, 0.32 30.15" stroke="#1e1e1e" stroke-width="2" fill="none"></path></g><g transform="translate(650.6502650101093 1217.6666564941406) rotate(0 0.2826193885914563 15.16668701171875)"><path d="M-4.62 15.81 C-3.84 19.62, -1.44 23.6, 0.32 30.15 M-4.62 15.81 C-2.72 20.63, -1.32 25.89, 0.32 30.15" stroke="#1e1e1e" stroke-width="2" fill="none"></path></g><g transform="translate(650.6502650101093 1217.6666564941406) rotate(0 0.2826193885914563 15.16668701171875)"><path d="M5.76 15.99 C3.91 19.74, 3.68 23.68, 0.32 30.15 M5.76 15.99 C4.1 20.79, 1.93 25.98, 0.32 30.15" stroke="#1e1e1e" stroke-width="2" fill="none"></path></g></g><mask></mask><g transform="translate(1001.3335571289062 838.6666564941406) rotate(0 138.2666015625 11.5)"><text x="0" y="18.400390625" font-family="Helvetica, Segoe UI Emoji" font-size="20px" fill="#e03131" text-anchor="start" style="white-space: pre;" direction="ltr" dominant-baseline="alphabetic">or throw "User not found " error</text></g><g stroke-linecap="round"><g transform="translate(986.6668090820312 789.9999694824219) rotate(0 71 20.333343505859375)"><path d="M-0.89 1.17 C22.64 7.9, 117.7 33.47, 141.48 40.21 M0.85 0.74 C24.14 7.65, 116.92 35.01, 140.26 41.5" stroke="#1e1e1e" stroke-width="2" fill="none"></path></g><g transform="translate(986.6668090820312 789.9999694824219) rotate(0 71 20.333343505859375)"><path d="M115.32 43.22 C125.48 41.97, 130.97 41.91, 140.26 41.5 M115.32 43.22 C124.89 43.02, 134.73 41.73, 140.26 41.5" stroke="#1e1e1e" stroke-width="2" fill="none"></path></g><g transform="translate(986.6668090820312 789.9999694824219) rotate(0 71 20.333343505859375)"><path d="M120.05 26.79 C128.62 30.91, 132.56 36.26, 140.26 41.5 M120.05 26.79 C127.85 32.79, 135.92 37.67, 140.26 41.5" stroke="#1e1e1e" stroke-width="2" fill="none"></path></g></g><mask></mask><g transform="translate(996.0001831054688 911.3332824707031) rotate(0 170.1220703125 11.5)"><text x="0" y="18.400390625" font-family="Helvetica, Segoe UI Emoji" font-size="20px" fill="#e03131" text-anchor="start" style="white-space: pre;" direction="ltr" dominant-baseline="alphabetic">no &lt;user&gt; and no &lt;token&gt; in this case</text></g><g stroke-linecap="round"><g transform="translate(1148.0001831054688 869.9999694824219) rotate(0 0.33331298828125 16.66668701171875)"><path d="M0.54 -0.17 C0.51 5.35, 0.24 28.04, 0.24 33.58 M0.15 -0.73 C0.25 4.86, 1.26 27.04, 1.25 32.74" stroke="#e03131" stroke-width="2" fill="none"></path></g><g transform="translate(1148.0001831054688 869.9999694824219) rotate(0 0.33331298828125 16.66668701171875)"><path d="M-4.83 17.21 C-2.73 22.38, 0.19 28.64, 1.25 32.74 M-4.83 17.21 C-3.55 21.24, -1.55 24.76, 1.25 32.74" stroke="#e03131" stroke-width="2" fill="none"></path></g><g transform="translate(1148.0001831054688 869.9999694824219) rotate(0 0.33331298828125 16.66668701171875)"><path d="M6.57 16.94 C4.38 22.27, 2.99 28.62, 1.25 32.74 M6.57 16.94 C5.07 21.02, 4.29 24.61, 1.25 32.74" stroke="#e03131" stroke-width="2" fill="none"></path></g></g><mask></mask><g transform="translate(1042.0003051757812 1000.6666564941406) rotate(0 180.126953125 23)"><text x="0" y="18.400390625" font-family="Helvetica, Segoe UI Emoji" font-size="20px" fill="#e03131" text-anchor="start" style="white-space: pre;" direction="ltr" dominant-baseline="alphabetic">in AuthStore.js:</text><text x="0" y="41.400390625" font-family="Helvetica, Segoe UI Emoji" font-size="20px" fill="#e03131" text-anchor="start" style="white-space: pre;" direction="ltr" dominant-baseline="alphabetic">set authLoading to false, and user to null</text></g><g transform="translate(1049.3334350585938 1107.9999694824219) rotate(0 171.6748046875 11.5)"><text x="0" y="18.400390625" font-family="Helvetica, Segoe UI Emoji" font-size="20px" fill="#e03131" text-anchor="start" style="white-space: pre;" direction="ltr" dominant-baseline="alphabetic">LoginPage no longer display "Loading"</text></g><g stroke-linecap="round"><g transform="translate(1175.7151514537277 948.0000305175781) rotate(0 0.05665401308829132 21.666656494140625)"><path d="M0 -0.04 C-0.03 7.26, 0.25 36.46, 0.24 43.73 M-0.66 -0.53 C-0.8 6.61, -0.15 35.77, -0.12 42.97" stroke="#e03131" stroke-width="2" fill="none"></path></g><g transform="translate(1175.7151514537277 948.0000305175781) rotate(0 0.05665401308829132 21.666656494140625)"><path d="M-7.81 22.72 C-4.94 30.72, -1.19 37.95, -0.12 42.97 M-7.81 22.72 C-5.53 29.64, -1.92 36.68, -0.12 42.97" stroke="#e03131" stroke-width="2" fill="none"></path></g><g transform="translate(1175.7151514537277 948.0000305175781) rotate(0 0.05665401308829132 21.666656494140625)"><path d="M7.01 22.51 C4.2 30.59, 2.26 37.9, -0.12 42.97 M7.01 22.51 C4.05 29.54, 2.44 36.64, -0.12 42.97" stroke="#e03131" stroke-width="2" fill="none"></path></g></g><mask></mask><g stroke-linecap="round"><g transform="translate(1231.3127663290584 1062.6666564941406) rotate(0 0.560355620084465 15.666656494140625)"><path d="M0.5 -0.41 C0.53 4.87, 0.5 26.22, 0.62 31.44 M0.1 0.58 C0.24 5.69, 1.46 25.42, 1.59 30.53" stroke="#e03131" stroke-width="2" fill="none"></path></g><g transform="translate(1231.3127663290584 1062.6666564941406) rotate(0 0.560355620084465 15.666656494140625)"><path d="M-4.44 16.06 C-2.7 20.94, 0.38 27.41, 1.59 30.53 M-4.44 16.06 C-3.47 18.96, -1.69 22.64, 1.59 30.53" stroke="#e03131" stroke-width="2" fill="none"></path></g><g transform="translate(1231.3127663290584 1062.6666564941406) rotate(0 0.560355620084465 15.666656494140625)"><path d="M6.27 15.57 C3.85 20.69, 2.75 27.35, 1.59 30.53 M6.27 15.57 C4.92 18.57, 4.37 22.36, 1.59 30.53" stroke="#e03131" stroke-width="2" fill="none"></path></g></g><mask></mask><g transform="translate(380.666748046875 10) rotate(0 340.4443359375 34.5)"><text x="0" y="18.400390625" font-family="Helvetica, Segoe UI Emoji" font-size="20px" fill="#1e1e1e" text-anchor="start" style="white-space: pre;" direction="ltr" dominant-baseline="alphabetic">Green: frontend flow</text><text x="0" y="41.400390625" font-family="Helvetica, Segoe UI Emoji" font-size="20px" fill="#1e1e1e" text-anchor="start" style="white-space: pre;" direction="ltr" dominant-baseline="alphabetic">Blue: backend flow</text><text x="0" y="64.400390625" font-family="Helvetica, Segoe UI Emoji" font-size="20px" fill="#1e1e1e" text-anchor="start" style="white-space: pre;" direction="ltr" dominant-baseline="alphabetic">Red: when typed in email and password doesn't match any user in database.</text></g></svg>